<svg width="550" height="550" viewBox="0 0 550 550" fill="none" xmlns="http://www.w3.org/2000/svg">
<g clip-path="url(#clip0_2907_243)">
<path d="M285.08 435.49L301.215 430.737L296.507 446.917L301.215 463.051L285.08 458.343L268.9 463.051L273.654 446.917L268.9 430.737L285.08 435.49Z" fill="black" stroke="white" stroke-miterlimit="10"/>
</g>
<g clip-path="url(#clip1_2907_243)">
<path d="M114.534 355.716L143.387 371.437L114.534 387.284L98.75 416.074L82.9662 387.284L54.1134 371.437L82.9662 355.716L98.75 326.8L114.534 355.716Z" fill="black" stroke="white" stroke-miterlimit="10"/>
</g>
<path d="M517.492 395.868C515.758 399.012 512.525 401.291 507.861 402.705C503.194 404.12 497.138 404.655 489.843 404.341C475.255 403.711 455.824 399.689 432.895 392.672C387.047 378.639 327.318 352.66 264.584 318.056C201.85 283.452 148.014 246.79 111.687 215.495C93.5208 199.845 79.7536 185.555 71.4391 173.551C67.2813 167.548 64.5035 162.141 63.211 157.438C61.9192 152.739 62.1221 148.789 63.8564 145.645C65.5907 142.501 68.8231 140.222 73.4874 138.808C78.1541 137.393 84.21 136.858 91.5053 137.172C106.094 137.802 125.525 141.823 148.453 148.841C194.301 162.874 254.03 188.853 316.764 223.457C379.498 258.061 433.334 294.723 469.661 326.018C487.828 341.668 501.595 355.958 509.909 367.962C514.067 373.965 516.845 379.372 518.137 384.074C519.429 388.774 519.226 392.724 517.492 395.868Z" stroke="black"/>
<path d="M498.947 429.487C497.213 432.631 493.98 434.91 489.316 436.324C484.649 437.739 478.594 438.274 471.298 437.96C456.71 437.33 437.279 433.308 414.351 426.291C368.502 412.258 308.773 386.279 246.039 351.675C183.305 317.071 129.469 280.409 93.1425 249.114C74.9759 233.464 61.2087 219.174 52.8942 207.17C48.7364 201.167 45.9586 195.76 44.6661 191.058C43.3743 186.358 43.5772 182.408 45.3115 179.264C47.0458 176.12 50.2782 173.841 54.9425 172.427C59.6092 171.012 65.665 170.477 72.9604 170.791C87.549 171.421 106.98 175.443 129.908 182.46C175.756 196.493 235.485 222.472 298.219 257.076C360.953 291.68 414.789 328.342 451.116 359.637C469.283 375.287 483.05 389.577 491.364 401.581C495.522 407.584 498.3 412.991 499.592 417.694C500.884 422.393 500.681 426.343 498.947 429.487Z" stroke="black"/>
<path d="M480.404 463.105C478.67 466.249 475.437 468.527 470.773 469.942C466.106 471.357 460.051 471.892 452.755 471.577C438.167 470.948 418.736 466.926 395.808 459.909C349.959 445.876 290.23 419.897 227.496 385.293C164.762 350.689 110.926 314.026 74.5996 282.732C56.4329 267.082 42.6657 252.792 34.3512 240.788C30.1934 234.785 27.4156 229.377 26.1231 224.675C24.8314 219.975 25.0342 216.026 26.7685 212.882C28.5028 209.737 31.7352 207.459 36.3995 206.045C41.0662 204.63 47.1221 204.094 54.4174 204.409C69.006 205.038 88.4369 209.06 111.365 216.078C157.213 230.111 216.942 256.09 279.676 290.694C342.41 325.297 396.246 361.96 432.573 393.255C450.74 408.905 464.507 423.195 472.821 435.199C476.979 441.201 479.757 446.609 481.05 451.311C482.341 456.011 482.138 459.961 480.404 463.105Z" stroke="black"/>
<ellipse cx="120.542" cy="134.791" rx="14.2083" ry="14.2083" fill="#B9FF66"/>
<ellipse cx="385.915" cy="437.75" rx="9.16662" ry="9.16667" fill="#B9FF66"/>
<ellipse cx="74.7095" cy="98.1252" rx="21.5415" ry="21.5417" fill="black"/>
<path d="M280.263 390.626C274.488 392.601 267.889 388.687 265.594 381.901L229.873 277.161L250.746 270.016L286.503 374.899C288.798 381.614 286.001 388.651 280.263 390.626Z" fill="black"/>
<path d="M277.142 391.917C275.456 391.917 273.735 391.522 272.085 390.697C268.749 389.045 266.095 385.957 264.804 382.151L229.083 277.411C228.94 277.016 229.155 276.549 229.585 276.405L250.459 269.26C250.674 269.188 250.889 269.188 251.068 269.296C251.248 269.404 251.391 269.547 251.463 269.763L287.22 374.646C289.623 381.756 286.61 389.26 280.477 391.379C279.437 391.738 278.289 391.917 277.142 391.917ZM230.877 277.662L266.347 381.648C267.494 385.059 269.861 387.86 272.802 389.296C275.169 390.445 277.716 390.661 280.011 389.871C285.319 388.039 287.901 381.433 285.749 375.149L250.243 271.019L230.877 277.662Z" fill="black"/>
<path d="M247.048 179.599L179.515 227.822L153.226 255.147L142.897 273.424L142.861 273.567C140.817 276.727 142 284.016 145.838 291.449C149.604 298.774 154.912 303.873 158.642 304.16L158.534 304.232L178.367 306.386L215.487 300.461L294.281 272.239L392.227 289.043L392.908 289.079C368.305 284.483 335.095 251.556 310.958 204.985C286.857 158.45 279.182 112.454 289.762 89.7607H289.726L247.585 178.45L247.048 179.599Z" fill="#B9FF66"/>
<path d="M409.193 287.052C433.4 274.466 428.719 217.409 398.738 159.611C368.758 101.813 324.831 65.1618 300.624 77.7476C276.418 90.3334 281.099 147.39 311.079 205.188C341.06 262.986 384.987 299.637 409.193 287.052Z" fill="white"/>
<path d="M398.546 290.335C388.001 290.335 375.305 284.446 361.641 272.992C343.027 257.409 324.772 233.387 310.247 205.308C288.262 162.794 279.189 119.204 287.151 94.2484C289.805 85.918 294.252 80.1011 300.313 76.9772C312.363 70.8013 329.327 76.0437 348.12 91.7708C366.734 107.354 384.989 131.376 399.514 159.455C421.535 201.969 430.608 245.559 422.611 270.515C419.957 278.845 415.51 284.662 409.448 287.786C406.185 289.509 402.527 290.335 398.546 290.335ZM311.287 76.0437C307.593 76.0437 304.15 76.7977 301.066 78.4135C295.364 81.322 291.203 86.8516 288.693 94.787C280.838 119.383 289.876 162.507 311.682 204.662C341.378 262.005 384.917 298.701 408.767 286.457C414.469 283.549 418.63 278.019 421.14 270.084C428.995 245.488 419.957 202.364 398.151 160.209C372.293 110.299 335.998 76.0437 311.287 76.0437Z" fill="black"/>
<path d="M398.538 290.335C387.994 290.335 375.298 284.446 361.633 272.992C343.02 257.408 324.765 233.387 310.239 205.308C288.255 162.794 279.181 119.203 287.143 94.2483C289.797 85.9179 294.244 80.101 300.305 76.9771C308.375 72.8119 318.919 73.8532 330.79 79.9574C342.159 85.8102 354.46 96.1872 366.439 109.94C366.726 110.263 366.69 110.765 366.367 111.053C366.045 111.34 365.543 111.304 365.256 110.981C340.939 83.0454 316.336 70.5498 301.058 78.4134C295.356 81.3218 291.195 86.8515 288.685 94.7869C280.831 119.383 289.868 162.507 311.674 204.661C337.496 254.536 373.827 288.827 398.502 288.827C402.196 288.827 405.639 288.073 408.723 286.457C414.426 283.549 418.586 278.019 421.097 270.084C428.951 245.487 419.913 202.363 398.107 160.209C391.616 147.642 384.3 135.828 376.445 125.092C376.194 124.733 376.266 124.23 376.625 123.979C376.983 123.728 377.485 123.8 377.736 124.159C385.662 134.967 392.979 146.852 399.542 159.491C421.527 201.968 430.601 245.559 422.603 270.514C419.949 278.845 415.502 284.662 409.441 287.786C406.177 289.509 402.519 290.335 398.538 290.335Z" fill="black"/>
<path d="M354.266 213.477C359.873 210.561 358.795 197.354 351.856 183.978C344.918 170.603 334.748 162.123 329.14 165.039C323.532 167.954 324.611 181.161 331.549 194.537C338.487 207.913 348.658 216.392 354.266 213.477Z" fill="#B9FF66"/>
<path d="M351.816 214.861C345.647 214.861 337.04 206.889 330.835 194.86C325.671 184.878 323.555 174.609 325.456 168.684C326.137 166.602 327.249 165.13 328.791 164.34C334.888 161.216 345.325 169.726 352.569 183.693C357.734 193.676 359.85 203.945 357.949 209.869C357.267 211.952 356.156 213.424 354.613 214.214C353.753 214.645 352.82 214.861 351.816 214.861ZM331.588 165.237C330.835 165.237 330.118 165.381 329.508 165.704C328.325 166.315 327.464 167.464 326.926 169.151C325.169 174.681 327.213 184.519 332.198 194.142C338.797 206.889 348.732 215.471 353.86 212.814C355.044 212.203 355.905 211.054 356.443 209.367C358.2 203.801 356.12 193.999 351.17 184.376C345.36 173.209 337.04 165.237 331.588 165.237Z" fill="#B9FF66"/>
<path d="M393.089 276.942C383.836 276.942 372.718 271.772 360.739 261.754C344.457 248.109 328.461 227.068 315.765 202.508C296.506 165.308 288.58 127.139 295.538 105.272C297.869 97.9472 301.778 92.8484 307.122 90.0836C319.387 83.7999 337.427 91.0531 356.651 109.976C356.973 110.299 356.973 110.766 356.651 111.089C356.328 111.412 355.862 111.412 355.539 111.089C336.818 92.6689 319.423 85.4876 307.839 91.484C302.89 94.0334 299.267 98.809 297.044 105.739C290.194 127.211 298.084 164.913 317.164 201.789C339.723 245.416 371.463 275.362 393.053 275.362C396.281 275.362 399.258 274.68 401.983 273.316C406.933 270.766 410.555 265.991 412.778 259.061C419.629 237.589 411.738 199.886 392.659 163.01C386.884 151.879 380.429 141.43 373.471 131.987C373.22 131.628 373.292 131.125 373.65 130.874C374.009 130.622 374.511 130.694 374.762 131.053C381.792 140.604 388.283 151.089 394.093 162.292C413.352 199.491 421.278 237.66 414.321 259.528C411.989 266.853 408.08 271.951 402.736 274.716C399.796 276.188 396.568 276.942 393.089 276.942Z" fill="black"/>
<path d="M178.403 307.139C178.368 307.139 178.332 307.139 178.332 307.139L158.499 304.985C158.391 304.985 158.283 304.949 158.176 304.877C154.087 304.231 148.923 299.06 145.157 291.807C141.14 284.159 139.957 276.691 142.144 273.172L142.18 273.064L152.509 254.752C152.545 254.68 152.581 254.644 152.617 254.608L178.906 227.283C178.941 227.247 178.977 227.211 179.013 227.175L246.367 179.06L288.974 89.4011C289.081 89.2215 289.225 89.0779 289.44 89.0061C289.655 88.9343 289.87 88.9343 290.05 89.042C290.444 89.2215 290.623 89.6883 290.444 90.0833C279.649 113.243 288.185 159.276 311.64 204.59C335.131 249.976 367.876 283.585 393.088 288.217C393.483 288.288 393.77 288.648 393.734 289.078C393.698 289.473 393.339 289.761 392.945 289.797L392.263 289.761C392.228 289.761 392.192 289.761 392.156 289.761L294.389 272.992L215.774 301.143C215.738 301.143 215.667 301.179 215.631 301.179L178.511 307.104C178.475 307.139 178.439 307.139 178.403 307.139ZM159.072 303.477L178.403 305.56L215.344 299.635L294.102 271.448C294.246 271.412 294.353 271.376 294.497 271.412L382.508 286.493C358.73 276.044 330.935 245.2 310.313 205.344C289.834 165.775 280.689 125.595 285.71 100.209L247.765 179.922C247.694 180.03 247.622 180.137 247.514 180.209L180.053 228.432L153.872 255.613L143.543 273.926C143.543 273.962 143.507 273.998 143.507 273.998C141.642 276.906 142.898 284.087 146.52 291.089C150.071 297.947 155.199 303.118 158.714 303.369C158.857 303.369 158.965 303.405 159.072 303.477Z" fill="black"/>
<path d="M247.153 179.312L289.724 89.7246H289.76C279.18 112.418 286.891 158.414 310.956 204.949C335.093 251.556 368.303 284.483 392.978 289.007L392.296 288.971L294.494 272.203L292.235 271.808C280.866 269.797 265.695 255.003 254.828 233.89C243.674 212.238 241.702 190.658 246.651 180.389L247.153 179.312Z" fill="white"/>
<path d="M392.979 289.797C392.943 289.797 392.979 289.797 392.979 289.797L392.262 289.761C392.226 289.761 392.19 289.761 392.154 289.761L294.352 272.992L292.092 272.597C280.078 270.479 264.835 255.075 254.112 234.285C241.954 210.658 241.344 189.617 245.935 180.066L246.473 178.989L289.044 89.4372C289.152 89.2577 289.295 89.114 289.51 89.0422C289.725 88.9704 289.941 88.9704 290.12 89.0781C290.514 89.2577 290.694 89.7245 290.514 90.1194C279.719 113.279 288.255 159.312 311.71 204.626C335.202 250.012 367.946 283.621 393.159 288.253C393.553 288.325 393.84 288.684 393.804 289.115C393.697 289.474 393.374 289.797 392.979 289.797ZM285.637 100.209L247.871 179.671L247.334 180.748C242.779 190.227 244.106 211.412 255.511 233.531C266.019 253.926 280.831 269.007 292.379 271.018L294.639 271.413L382.471 286.493C358.693 276.045 330.898 245.201 310.276 205.344C289.797 165.775 280.652 125.595 285.637 100.209Z" fill="black"/>
<path d="M177.327 307.033C177.291 307.033 177.255 307.033 177.255 307.033L158.462 305.022C158.355 305.022 158.247 304.986 158.139 304.914C154.051 304.268 148.886 299.098 145.121 291.844C141.14 284.16 139.956 276.692 142.144 273.173L142.18 273.065L152.509 254.753C152.724 254.358 153.19 254.25 153.585 254.466C153.979 254.681 154.087 255.148 153.872 255.543L143.543 273.927C143.543 273.963 143.507 273.999 143.507 273.999C141.642 276.907 142.897 284.089 146.519 291.09C150.07 297.949 155.199 303.119 158.713 303.37C158.821 303.37 158.964 303.406 159.036 303.478L177.399 305.453C177.829 305.489 178.152 305.884 178.08 306.315C178.044 306.71 177.721 307.033 177.327 307.033Z" fill="black"/>
<path d="M178.582 306.241C172.485 305.81 163.949 297.157 157.745 285.2C151.182 272.525 149.64 259.419 153.656 254.751L142.933 273.422L142.861 273.566C140.817 276.726 142 284.015 145.838 291.448C149.604 298.773 154.912 303.871 158.642 304.159L158.534 304.23L178.582 306.241Z" fill="white"/>
<path d="M178.582 307.032C178.546 307.032 178.546 307.032 178.51 307.032C178.367 307.032 178.188 306.996 178.044 306.996L158.462 305.021C158.355 305.021 158.247 304.985 158.139 304.914C154.051 304.267 148.886 299.097 145.121 291.844C141.14 284.159 139.956 276.691 142.144 273.172L142.18 273.064L151.612 256.619C151.971 255.685 152.437 254.86 153.011 254.177C153.262 253.854 153.728 253.818 154.051 254.034C154.374 254.285 154.481 254.716 154.266 255.075L152.939 257.337C150.823 263.046 152.903 274.249 158.355 284.734C164.272 296.188 172.342 304.555 178.116 305.309L178.546 305.344C178.977 305.38 179.299 305.775 179.264 306.206C179.299 306.709 178.977 307.032 178.582 307.032ZM159.036 303.477L172.736 304.878C167.464 301.502 161.654 294.537 157.028 285.56C152.545 276.906 150.321 267.93 150.68 261.466L143.543 273.926C143.543 273.962 143.507 273.998 143.507 273.998C141.642 276.906 142.897 284.088 146.519 291.09C150.07 297.948 155.199 303.118 158.713 303.37C158.821 303.37 158.964 303.406 159.036 303.477Z" fill="black"/>
<path d="M214.159 300.606L215.737 300.283C207.201 302.078 193.716 289.151 184.212 270.803C174.492 252.06 172.663 233.352 179.549 227.823L178.653 228.72L153.727 254.645C149.638 259.241 151.145 272.419 157.744 285.166C164.092 297.446 173.094 306.207 179.227 306.171L214.159 300.606Z" fill="black"/>
<path d="M179.192 306.996C172.665 306.996 163.591 298.199 157.028 285.56C150.357 272.634 148.672 259.133 153.119 254.142L177.579 228.72C178.009 228.145 178.511 227.642 179.049 227.212C179.372 226.96 179.838 226.996 180.125 227.283C180.412 227.607 180.412 228.073 180.125 228.361L178.726 229.833C173.741 236.511 176.216 253.603 184.931 270.443C194.327 288.612 207.454 301.072 215.487 299.564L215.595 299.528C216.025 299.456 216.42 299.707 216.527 300.138C216.599 300.569 216.348 300.964 215.918 301.072C215.882 301.072 215.846 301.072 215.81 301.108L214.34 301.395H214.304L179.372 306.96C179.3 306.96 179.228 306.996 179.192 306.996ZM175.498 233.172L154.302 255.219C150.357 259.671 152.151 272.669 158.463 284.842C164.631 296.763 173.346 305.38 179.192 305.416L210.036 300.497C201.715 297.553 191.458 286.458 183.532 271.197C176 256.655 173.095 241.861 175.498 233.172Z" fill="black"/>
<path d="M329.138 165.023C323.507 167.896 324.332 181.217 331.505 194.503C343.52 216.729 353.096 214.108 354.207 213.713C354.243 213.713 354.243 213.749 354.207 213.749L333.585 230.374C327.524 221.864 321.75 212.384 316.442 202.151C311.385 192.348 307.117 182.582 303.746 173.102L329.138 165.023Z" fill="black"/>
<path d="M333.587 231.163C333.551 231.163 333.515 231.163 333.479 231.163C333.264 231.127 333.085 231.02 332.941 230.84C326.737 222.115 320.963 212.564 315.762 202.546C310.777 192.923 306.473 183.12 303.03 173.425C302.959 173.21 302.959 172.994 303.066 172.815C303.174 172.635 303.317 172.492 303.533 172.42L328.925 164.341C329.319 164.233 329.749 164.413 329.893 164.808C330.036 165.203 329.893 165.633 329.534 165.813C328.315 166.423 327.418 167.644 326.88 169.44C325.123 175.077 327.275 185.059 332.26 194.215C343.988 215.903 353.026 213.425 353.994 213.066C354.353 212.923 354.783 213.102 354.962 213.425C355.142 213.749 355.07 214.215 354.783 214.467L334.089 230.984C333.946 231.091 333.766 231.163 333.587 231.163ZM304.788 173.605C308.195 182.976 312.355 192.456 317.161 201.792C322.182 211.486 327.777 220.714 333.766 229.224L351.663 214.79C347.574 214.61 339.863 211.558 330.825 194.862C325.589 185.203 323.437 175.005 325.338 168.865C325.589 168.075 325.876 167.393 326.235 166.747L304.788 173.605Z" fill="black"/>
<path d="M435.247 113.798C451.642 105.178 457.984 84.94 449.411 68.5952C440.838 52.2504 420.596 45.9883 404.201 54.6083C387.805 63.2284 381.464 83.4664 390.037 99.8112C398.61 116.156 418.851 122.418 435.247 113.798Z" fill="black"/>
<path d="M404.454 76.7987C406.032 74.6443 408.363 73.3158 411.017 73.0285C413.026 72.8131 414.89 73.244 416.648 74.3212C417.544 74.8598 418.333 75.542 419.087 76.3679C419.625 75.3984 420.27 74.5366 421.023 73.8185C422.494 72.3822 424.251 71.5564 426.224 71.3409C428.878 71.0537 431.46 71.8436 433.468 73.603C435.441 75.3266 436.696 77.84 437.019 80.6767C437.342 83.5851 436.553 86.3858 434.544 89.4738C432.751 92.2386 430.025 95.1112 426.869 98.4864C425.793 99.6354 424.574 100.928 423.319 102.293C422.996 102.652 422.53 102.903 422.028 102.939C421.525 103.011 421.059 102.867 420.629 102.58C419.087 101.503 417.616 100.497 416.325 99.6354C412.523 97.0501 409.224 94.8239 406.857 92.5259C404.203 89.9765 402.84 87.3912 402.517 84.4828C402.23 81.6461 402.912 78.9172 404.454 76.7987Z" fill="white"/>
<path d="M528.266 115.625C540.269 103.608 540.269 84.1244 528.266 72.1073C516.263 60.0902 496.803 60.0902 484.8 72.1073C472.797 84.1244 472.797 103.608 484.8 115.625C496.803 127.642 516.263 127.642 528.266 115.625Z" fill="#B9FF66"/>
<path d="M506.527 125.416C489.168 125.416 475.002 111.268 475.002 93.8535C475.002 76.4747 489.133 62.2915 506.527 62.2915C523.921 62.2915 538.052 76.4388 538.052 93.8535C538.052 111.232 523.921 125.416 506.527 125.416ZM506.527 63.8714C490.029 63.8714 476.58 77.3005 476.58 93.8535C476.58 110.371 489.993 123.836 506.527 123.836C523.025 123.836 536.474 110.407 536.474 93.8535C536.474 77.3364 523.06 63.8714 506.527 63.8714Z" fill="#B9FF66"/>
<path d="M514.844 96.9065C513.122 96.9065 511.616 97.7323 510.612 99.025L500.247 94.9675C500.247 94.8239 500.283 94.7162 500.283 94.5725C500.283 94.3212 500.247 94.0698 500.211 93.8185L510.827 88.8993C511.795 90.0124 513.23 90.7305 514.844 90.7664C517.785 90.7664 520.223 88.3607 520.223 85.3804C520.223 82.4002 517.821 79.9585 514.844 79.9585C511.903 79.9585 509.464 82.3642 509.464 85.3445C509.464 85.5959 509.5 85.8472 509.536 86.0985L498.92 91.0178C497.952 89.9047 496.517 89.1865 494.903 89.1506C491.962 89.1506 489.523 91.5564 489.523 94.5366C489.523 97.5169 491.926 99.9585 494.903 99.9585C496.625 99.9585 498.131 99.1327 499.135 97.84L509.5 101.898C509.5 102.041 509.464 102.149 509.464 102.292C509.464 105.273 511.867 107.714 514.844 107.714C517.785 107.714 520.223 105.309 520.223 102.328C520.188 99.3481 517.785 96.9424 514.844 96.9065Z" fill="black"/>
<path d="M515.249 213.161C529.324 203.38 532.86 184.093 523.147 170.083C513.434 156.073 494.15 152.644 480.075 162.425C466 172.206 462.464 191.493 472.177 205.503C481.89 219.513 501.174 222.942 515.249 213.161Z" fill="black"/>
<path d="M489.922 202.509L485.403 177.985C485.188 176.728 486.336 175.687 487.555 176.01L514.274 183.586C515.637 183.981 515.96 185.741 514.848 186.603L492.612 203.551C491.644 204.341 490.173 203.802 489.922 202.509Z" fill="white"/>
<path d="M497.363 313.617C514.745 305.145 522.018 284.257 513.608 266.963C505.199 249.668 484.291 242.515 466.909 250.987C449.528 259.458 442.255 280.346 450.664 297.641C459.074 314.936 479.982 322.089 497.363 313.617Z" fill="#B9FF66"/>
<path d="M481.957 317.984C478.227 317.984 474.426 317.41 470.732 316.153C461.694 313.137 454.377 306.818 450.145 298.272C445.913 289.762 445.268 280.103 448.316 271.054C454.628 252.419 474.928 242.257 493.613 248.469C502.651 251.485 509.967 257.805 514.199 266.351C518.431 274.861 519.077 284.519 516.028 293.568C510.936 308.505 496.913 317.984 481.957 317.984ZM482.316 248.254C468.006 248.254 454.593 257.302 449.751 271.593C446.846 280.247 447.456 289.475 451.508 297.589C455.561 305.74 462.555 311.809 471.198 314.681C489.058 320.606 508.461 310.911 514.486 293.101C517.391 284.448 516.782 275.22 512.729 267.105C508.676 258.954 501.683 252.886 493.039 250.013C489.489 248.792 485.866 248.254 482.316 248.254Z" fill="black"/>
<path d="M499.966 276.657C499.608 285.382 484.867 305.777 481.353 310.553C480.994 311.056 480.241 311.02 479.918 310.481C477.695 306.89 470.342 294.826 466.505 285.059C464.963 281.181 463.994 277.662 464.102 275.185C464.496 265.275 472.853 257.555 482.751 257.95C492.65 258.416 500.361 266.747 499.966 276.657Z" fill="black"/>
<path d="M487.832 281.759C491.04 278.548 491.04 273.342 487.832 270.131C484.625 266.919 479.425 266.919 476.218 270.131C473.01 273.342 473.01 278.548 476.218 281.759C479.425 284.97 484.625 284.97 487.832 281.759Z" fill="#B9FF66"/>
<defs>
<clipPath id="clip0_2907_243">
<rect width="32.9998" height="33" fill="white" transform="translate(268.582 430.417)"/>
</clipPath>
<clipPath id="clip1_2907_243">
<rect width="64.4652" height="64.4652" fill="white" transform="matrix(0.707105 0.707109 -0.707105 0.707109 98.75 325.917)"/>
</clipPath>
</defs>
</svg>
