<svg width="690" height="691" viewBox="0 0 690 691" fill="none" xmlns="http://www.w3.org/2000/svg">
<mask id="mask0_2907_246" style="mask-type:alpha" maskUnits="userSpaceOnUse" x="41" y="0" width="648" height="690">
<mask id="path-1-outside-1_2907_246" maskUnits="userSpaceOnUse" x="40.5215" y="-0.5" width="648" height="690" fill="black">
<rect fill="white" x="40.5215" y="-0.5" width="648" height="690"/>
<path d="M364.977 172.142L385.313 0.5L385.154 173.498L425.506 5.92207L405.171 177.564L464.906 16.5968L424.553 184.342L502.716 32.5241L442.823 193.492L538.303 53.3652L459.981 205.183L571.03 78.9506L475.709 218.908L600.738 108.603L489.53 234.666L626.634 141.982L501.445 252.287L648.399 178.581L511.295 271.265L665.715 217.722L518.762 291.428L678.266 258.896L523.846 312.438L685.892 301.425L526.388 333.788L688.433 344.632L526.388 355.476L685.892 387.839L523.846 376.995L678.266 430.368L518.762 398.006L665.715 471.712L511.295 418.169L648.399 510.852L501.445 437.146L626.634 547.451L489.53 454.598L600.738 580.831L475.709 470.356L571.03 610.483L459.981 484.25L538.303 635.899L442.823 495.772L502.716 656.74L424.553 505.091L464.906 672.667L405.171 511.7L425.506 683.511L385.154 515.766L385.313 688.933L364.977 517.122L344.642 688.933V515.766L304.29 683.511L324.784 511.7L265.049 672.667L305.402 505.091L227.239 656.74L287.132 495.772L191.652 635.899L269.974 484.25L158.766 610.483L254.246 470.356L129.217 580.831L240.425 454.598L103.321 547.451L228.51 437.146L81.5563 510.852L218.66 418.169L64.2397 471.712L211.193 398.006L51.6891 430.368L206.109 376.995L44.0634 387.839L203.567 355.476L41.5215 344.632L203.567 333.788L44.0634 301.425L206.109 312.438L51.6891 258.896L211.193 291.428L64.2397 217.722L218.66 271.265L81.5563 178.581L228.51 252.287L103.321 141.982L240.425 234.666L129.217 108.603L254.246 218.908L158.766 78.9506L269.974 205.183L191.652 53.3652L287.132 193.492L227.239 32.5241L305.402 184.342L265.049 16.5968L324.784 177.564L304.29 5.92207L344.642 173.498V0.5L364.977 172.142Z"/>
</mask>
<path d="M364.977 172.142L385.313 0.5L385.154 173.498L425.506 5.92207L405.171 177.564L464.906 16.5968L424.553 184.342L502.716 32.5241L442.823 193.492L538.303 53.3652L459.981 205.183L571.03 78.9506L475.709 218.908L600.738 108.603L489.53 234.666L626.634 141.982L501.445 252.287L648.399 178.581L511.295 271.265L665.715 217.722L518.762 291.428L678.266 258.896L523.846 312.438L685.892 301.425L526.388 333.788L688.433 344.632L526.388 355.476L685.892 387.839L523.846 376.995L678.266 430.368L518.762 398.006L665.715 471.712L511.295 418.169L648.399 510.852L501.445 437.146L626.634 547.451L489.53 454.598L600.738 580.831L475.709 470.356L571.03 610.483L459.981 484.25L538.303 635.899L442.823 495.772L502.716 656.74L424.553 505.091L464.906 672.667L405.171 511.7L425.506 683.511L385.154 515.766L385.313 688.933L364.977 517.122L344.642 688.933V515.766L304.29 683.511L324.784 511.7L265.049 672.667L305.402 505.091L227.239 656.74L287.132 495.772L191.652 635.899L269.974 484.25L158.766 610.483L254.246 470.356L129.217 580.831L240.425 454.598L103.321 547.451L228.51 437.146L81.5563 510.852L218.66 418.169L64.2397 471.712L211.193 398.006L51.6891 430.368L206.109 376.995L44.0634 387.839L203.567 355.476L41.5215 344.632L203.567 333.788L44.0634 301.425L206.109 312.438L51.6891 258.896L211.193 291.428L64.2397 217.722L218.66 271.265L81.5563 178.581L228.51 252.287L103.321 141.982L240.425 234.666L129.217 108.603L254.246 218.908L158.766 78.9506L269.974 205.183L191.652 53.3652L287.132 193.492L227.239 32.5241L305.402 184.342L265.049 16.5968L324.784 177.564L304.29 5.92207L344.642 173.498V0.5L364.977 172.142Z" stroke="black" stroke-width="2" stroke-miterlimit="10" mask="url(#path-1-outside-1_2907_246)"/>
</mask>
<g mask="url(#mask0_2907_246)">
<rect x="-783.938" y="-37.5303" width="1150.21" height="701.256" rx="45" fill="black"/>
</g>
<path d="M95.281 499.929L140.781 526.386L95.281 553.057L70.3906 601.509L45.5003 553.057L0.000663989 526.386L45.5003 499.929L70.3906 451.264L95.281 499.929Z" fill="#B9FF66"/>
<path d="M216.116 259.262L297.421 306.54L216.116 354.198L171.639 440.78L127.161 354.198L45.8564 306.54L127.161 259.262L171.639 172.301L216.116 259.262Z" fill="#191A23"/>
</svg>
