<svg width="150" height="48" viewBox="0 0 150 48" fill="none" xmlns="http://www.w3.org/2000/svg">
<g style="mix-blend-mode:luminosity" clip-path="url(#clip0_2921_152)">
<path d="M52.9254 34.7749V20.2199H53.218L65.1719 34.7749H68.9337V13.4006H64.754V27.919H64.4614L52.5074 13.4006H48.7457V34.7749H52.9254ZM80.7622 35.1049C86.2794 35.1049 89.665 31.9519 89.665 26.6725C89.665 21.4297 86.2794 18.2401 80.7622 18.2401C75.2868 18.2401 71.8595 21.4297 71.8595 26.6725C71.9013 31.9519 75.245 35.1049 80.7622 35.1049ZM80.7622 32.0252C77.8364 32.0252 76.1645 30.0821 76.1645 26.6725C76.1645 23.2995 77.8364 21.3198 80.7622 21.3198C83.688 21.3198 85.3599 23.2995 85.3599 26.6725C85.3599 30.0821 83.688 32.0252 80.7622 32.0252ZM93.4685 14.6105V18.6801H90.5427V21.6131H93.4685V30.4487C93.4685 33.6017 95.1404 34.8483 99.4037 34.8483C100.198 34.8483 100.992 34.7749 101.619 34.6649V31.8053C101.117 31.8419 100.783 31.8786 100.198 31.8786C98.4424 31.8786 97.6482 31.182 97.6482 29.5688V21.6131H101.619V18.6801H97.6482V14.6105H93.4685ZM104.127 34.7749H108.306V18.5701H104.127V34.7749ZM106.217 15.8937C107.596 15.8937 108.724 14.9038 108.724 13.6939C108.724 12.4474 107.596 11.4575 106.217 11.4575C104.837 11.4575 103.709 12.4474 103.709 13.6939C103.709 14.9038 104.837 15.8937 106.217 15.8937ZM119.759 35.1049C125.276 35.1049 128.662 31.9519 128.662 26.6725C128.662 21.4297 125.276 18.2401 119.759 18.2401C114.283 18.2401 110.856 21.4297 110.856 26.6725C110.856 31.9519 114.2 35.1049 119.759 35.1049ZM119.759 32.0252C116.833 32.0252 115.161 30.0821 115.161 26.6725C115.161 23.2995 116.833 21.3198 119.759 21.3198C122.643 21.3198 124.357 23.2995 124.357 26.6725C124.315 30.0821 122.643 32.0252 119.759 32.0252ZM131.128 34.7749H135.307V25.3526C135.307 22.9696 136.896 21.4664 139.362 21.4664C141.911 21.4664 143.082 22.7129 143.082 25.1693V34.7749H147.261V24.2894C147.261 20.4032 145.004 18.2401 140.908 18.2401C138.15 18.2401 136.31 19.34 135.433 21.1731H135.14V18.5701H131.086C131.128 18.5701 131.128 34.7749 131.128 34.7749Z" fill="black"/>
<path fill-rule="evenodd" clip-rule="evenodd" d="M8.66951 12.0326C9.88602 12.9024 10.326 12.8337 12.6037 12.6964L34.0609 11.5519C34.5268 11.5519 34.1385 11.1399 33.9832 11.0941L30.4114 8.82806C29.7384 8.37028 28.8066 7.82093 27.0724 7.95826L6.31415 9.30874C5.56354 9.37741 5.40824 9.72075 5.71883 9.97254L8.66951 12.0326ZM9.96367 16.4502V36.4098C9.96367 37.4857 10.559 37.8748 11.9308 37.8061L35.5103 36.593C36.8821 36.5243 37.0374 35.7918 37.0374 34.922V15.0998C37.0374 14.23 36.6492 13.7493 35.8209 13.818L11.1802 15.0998C10.2743 15.1684 9.96367 15.5804 9.96367 16.4502ZM33.2326 17.5261C33.3879 18.1212 33.2326 18.7392 32.5597 18.8079L31.4208 19.0139V33.7547C30.4372 34.2125 29.5313 34.4871 28.7548 34.4871C27.5383 34.4871 27.2277 34.1438 26.3218 33.1367L18.8934 22.8135V32.7933L21.2487 33.2511C21.2487 33.2511 21.2487 34.4642 19.3593 34.4642L14.1309 34.7389C13.9756 34.4642 14.1309 33.8005 14.6485 33.6631L16.0203 33.3198V20.1354L14.1309 19.9981C13.9756 19.403 14.3638 18.5332 15.425 18.4645L21.0417 18.1212L28.7807 28.5588V19.3343L26.8136 19.1283C26.6583 18.3959 27.2795 17.8465 28.0301 17.7778L33.2326 17.5261ZM4.57998 7.47759L26.1924 6.08133C28.8325 5.87532 29.5313 6.01266 31.1878 7.08847L38.0728 11.3688C39.2116 12.1013 39.5999 12.3073 39.5999 13.1084V36.6159C39.5999 38.0808 39.0046 38.9506 36.8821 39.0879L11.8014 40.4384C10.1966 40.5071 9.44601 40.3011 8.61775 39.3626L3.51877 33.5258C2.61286 32.45 2.22461 31.6488 2.22461 30.7104V9.81231C2.22461 8.59917 2.8458 7.61492 4.57998 7.47759Z" fill="black"/>
</g>
<defs>
<clipPath id="clip0_2921_152">
<rect width="145.551" height="48" fill="white" transform="translate(2.22461)"/>
</clipPath>
</defs>
</svg>
