<svg width="150" height="48" viewBox="0 0 150 48" fill="none" xmlns="http://www.w3.org/2000/svg">
<g style="mix-blend-mode:luminosity" clip-path="url(#clip0_2921_149)">
<path fill-rule="evenodd" clip-rule="evenodd" d="M89.5942 37.8069C82.4142 42.4973 72.0072 44.9998 63.047 44.9998C50.4833 44.9998 39.1728 40.8814 30.616 34.0316C29.9437 33.493 30.5461 32.7589 31.3528 33.1784C40.5873 37.9403 52.0054 40.8051 63.8 40.8051C71.7544 40.8051 80.5049 39.3465 88.5508 36.3196C89.7663 35.862 90.7828 37.0251 89.5942 37.8069Z" fill="#FF9900"/>
<path fill-rule="evenodd" clip-rule="evenodd" d="M92.5792 34.78C91.6649 33.7409 86.5125 34.2891 84.1999 34.5322C83.4953 34.6084 83.3878 34.065 84.0224 33.6741C88.126 31.1144 94.8596 31.8533 95.6448 32.7113C96.43 33.574 95.4404 39.5563 91.5842 42.4115C90.9926 42.8501 90.4279 42.6165 90.6914 42.035C91.5573 40.1187 93.4989 35.8239 92.5792 34.78Z" fill="#FF9900"/>
<path fill-rule="evenodd" clip-rule="evenodd" d="M84.3616 15.6036V13.1154C84.3616 12.7388 84.6843 12.4862 85.0715 12.4862H97.6406C98.0439 12.4862 98.3666 12.7436 98.3666 13.1154V15.2461C98.3613 15.6036 98.0224 16.0708 97.4201 16.8096L90.907 25.0513C93.3272 24.9988 95.8819 25.3182 98.0762 26.4145C98.571 26.6624 98.7055 27.0247 98.7431 27.3822V30.0373C98.7431 30.3995 98.2913 30.8238 97.8181 30.6045C93.9511 28.8074 88.8148 28.612 84.5391 30.6236C84.1034 30.8333 83.6463 30.4138 83.6463 30.0516V27.53C83.6463 27.1248 83.6517 26.4336 84.1088 25.8187L91.6545 16.2281H85.0877C84.6843 16.2281 84.3616 15.9754 84.3616 15.6036Z" fill="black"/>
<path fill-rule="evenodd" clip-rule="evenodd" d="M38.5117 31.1289H34.6878C34.3221 31.105 34.0316 30.8619 34.0047 30.5521V13.1583C34.0047 12.8104 34.3328 12.5339 34.7416 12.5339H38.3074C38.6785 12.5482 38.9743 12.8008 39.0012 13.1154V15.3892H39.0711C40.0015 13.1917 41.7495 12.1669 44.1052 12.1669C46.4985 12.1669 47.9936 13.1917 49.0693 15.3892C49.9944 13.1917 52.0973 12.1669 54.3508 12.1669C55.9535 12.1669 57.7068 12.7532 58.7771 14.0688C59.9872 15.5322 59.7398 17.6581 59.7398 19.5219L59.7344 30.4997C59.7344 30.8476 59.4064 31.1289 58.9976 31.1289H55.179C54.7972 31.105 54.4906 30.8333 54.4906 30.4997V21.2808C54.4906 20.5468 54.5659 18.7163 54.383 18.0204C54.098 16.8526 53.2429 16.5236 52.1349 16.5236C51.2099 16.5236 50.2418 17.0718 49.8492 17.9489C49.4565 18.826 49.4942 20.2941 49.4942 21.2808V30.4997C49.4942 30.8476 49.1661 31.1289 48.7574 31.1289H44.9388C44.5516 31.105 44.2504 30.8333 44.2504 30.4997L44.245 21.2808C44.245 19.3408 44.6053 16.4855 41.8893 16.4855C39.141 16.4855 39.2486 19.2693 39.2486 21.2808V30.4997C39.2486 30.8476 38.9205 31.1289 38.5117 31.1289Z" fill="black"/>
<path fill-rule="evenodd" clip-rule="evenodd" d="M109.188 12.1669C114.862 12.1669 117.933 16.4855 117.933 21.9768C117.933 27.2821 114.539 31.4911 109.188 31.4911C103.616 31.4911 100.582 27.1725 100.582 21.7909C100.582 16.3759 103.653 12.1669 109.188 12.1669ZM109.22 15.7181C106.402 15.7181 106.224 19.1215 106.224 21.2427C106.224 23.3686 106.187 27.9066 109.188 27.9066C112.151 27.9066 112.291 24.2457 112.291 22.0149C112.291 20.5468 112.221 18.7926 111.721 17.4007C111.29 16.19 110.435 15.7181 109.22 15.7181Z" fill="black"/>
<path fill-rule="evenodd" clip-rule="evenodd" d="M125.29 31.1289H121.482C121.101 31.105 120.794 30.8333 120.794 30.4997L120.789 13.1011C120.821 12.7818 121.138 12.5339 121.526 12.5339H125.07C125.403 12.5482 125.678 12.7484 125.753 13.0201V15.6799H125.823C126.893 13.3013 128.394 12.1669 131.034 12.1669C132.75 12.1669 134.423 12.715 135.498 14.2166C136.499 15.6084 136.499 17.9489 136.499 19.6315V30.5807C136.456 30.8858 136.138 31.1289 135.762 31.1289H131.927C131.577 31.105 131.287 30.8762 131.249 30.5807V21.1331C131.249 19.2311 131.497 16.4474 128.856 16.4474C127.926 16.4474 127.071 17.0003 126.646 17.8393C126.108 18.9022 126.038 19.9605 126.038 21.1331V30.4997C126.033 30.8476 125.699 31.1289 125.29 31.1289Z" fill="black"/>
<path fill-rule="evenodd" clip-rule="evenodd" d="M74.3419 22.8204C74.3419 24.1408 74.3795 25.2419 73.6266 26.4146C73.0188 27.3679 72.0508 27.9542 70.9805 27.9542C69.5122 27.9542 68.6517 26.9627 68.6517 25.4993C68.6517 22.6107 71.5721 22.0864 74.3419 22.0864V22.8204ZM78.1981 31.0812C77.9453 31.2814 77.5796 31.2957 77.2946 31.1622C76.0253 30.2279 75.794 29.7942 75.1002 28.9028C73.0027 30.7999 71.5129 31.3672 68.7969 31.3672C65.5753 31.3672 63.0744 29.6083 63.0744 26.0857C63.0744 23.3353 64.7524 21.4619 67.1511 20.5467C69.2272 19.7364 72.126 19.5934 74.3419 19.3693V18.9308C74.3419 18.1252 74.4118 17.1719 73.874 16.476C73.4115 15.8515 72.5187 15.5941 71.7281 15.5941C70.2705 15.5941 68.9744 16.2567 68.6571 17.6295C68.5925 17.9346 68.3397 18.2349 67.9902 18.2492L64.2845 17.8964C63.9726 17.8345 63.623 17.6104 63.7144 17.1862C64.5642 13.2012 68.6302 12 72.2659 12C74.1268 12 76.5577 12.4385 78.026 13.6874C79.8869 15.2271 79.7094 17.2815 79.7094 19.5171V24.7986C79.7094 26.386 80.4516 27.0819 81.1508 27.9399C81.3928 28.245 81.4466 28.612 81.1346 28.8408C80.3548 29.4176 78.9672 30.4901 78.2035 31.0907L78.1981 31.0812Z" fill="black"/>
<path fill-rule="evenodd" clip-rule="evenodd" d="M24.2108 22.8204C24.2108 24.1408 24.2485 25.2419 23.4955 26.4145C22.8878 27.3679 21.9251 27.9542 20.8494 27.9542C19.3812 27.9542 18.526 26.9627 18.526 25.4993C18.526 22.6107 21.4464 22.0864 24.2108 22.0864V22.8204ZM28.0671 31.0812C27.8143 31.2814 27.4486 31.2957 27.1635 31.1622C25.8942 30.2279 25.6684 29.7941 24.9692 28.9028C22.8717 30.7999 21.3873 31.3672 18.6658 31.3672C15.4496 31.3672 12.9434 29.6082 12.9434 26.0856C12.9434 23.3352 14.6268 21.4619 17.0201 20.5467C19.0961 19.7364 21.995 19.5934 24.2108 19.3693V18.9308C24.2108 18.1252 24.2808 17.1719 23.7483 16.4759C23.2804 15.8515 22.3876 15.5941 21.6024 15.5941C20.1449 15.5941 18.8433 16.2567 18.526 17.6295C18.4615 17.9346 18.2087 18.2349 17.8645 18.2492L14.1535 17.8964C13.8415 17.8345 13.4973 17.6104 13.5834 17.1862C14.4385 13.2012 18.4991 12 22.1348 12C23.9957 12 26.4267 12.4385 27.895 13.6874C29.7558 15.2271 29.5784 17.2815 29.5784 19.5171V24.7986C29.5784 26.3859 30.3206 27.0819 31.0197 27.9399C31.2671 28.245 31.3209 28.612 31.009 28.8408C30.2291 29.4176 28.8415 30.4901 28.0778 31.0907L28.0671 31.0812Z" fill="black"/>
</g>
<defs>
<clipPath id="clip0_2921_149">
<rect width="124.113" height="48" fill="white" transform="translate(12.9434)"/>
</clipPath>
</defs>
</svg>
