<svg width="150" height="48" viewBox="0 0 150 48" fill="none" xmlns="http://www.w3.org/2000/svg">
<g style="mix-blend-mode:luminosity" clip-path="url(#clip0_2921_150)">
<path fill-rule="evenodd" clip-rule="evenodd" d="M137.387 30.5633C132.132 38.4606 123.808 36.1691 121.308 34.3749C120.245 35.0147 118.379 36.417 115.892 36.255C110.594 35.9104 108.697 29.2007 108.697 29.2007C108.735 29.2275 107.119 29.6949 106.245 29.6866C106.234 31.6542 104.315 36.3546 99.1356 36.2945C93.3237 36.2273 92.1421 28.5531 92.1421 28.5531C92.1421 28.5531 91.5637 29.2649 89.3646 29.9739C89.4753 28.4622 89.3944 36.0644 82.4285 36.1761C76.9216 36.2646 75.435 28.4348 75.435 28.4348C75.435 28.4348 74.4797 29.3143 72.6283 29.6194C72.7459 28.0831 72.5546 36.2019 65.5879 36.1761C60.8799 36.1588 59.2711 31.353 59.3962 30.686C59.5559 29.8359 57.805 36.2957 53.2319 36.195C51.3447 36.1459 49.9378 34.9349 49.0549 33.3204C47.873 34.5189 46.1571 36.195 44.2322 36.195C40.7769 36.195 39.2537 33.6337 39.5116 26.3179C39.5336 25.4502 39.463 25.109 38.4898 24.9792C37.9056 24.8928 37.3074 24.7292 36.6744 24.643C36.4715 25.243 34.7508 35.9998 28.834 36.204C26.849 36.2725 25.7636 34.7485 24.8722 33.6174C23.5058 35.2194 21.7021 36.255 19.1326 36.255C14.78 36.255 11.8145 33.1365 11.8145 29.2895C11.8145 25.4425 14.78 22.3242 19.1326 22.3242C19.9022 22.3242 20.1182 22.422 20.8213 22.6038C19.3754 10.9365 22.79 9.11303 25.777 9.11303C28.6447 9.11303 33.5438 15.012 26.6503 29.9751C28.1808 34.4381 31.4802 34.1857 33.0657 24.9982C33.3884 23.1307 32.5256 20.6105 33.8676 20.2588C36.3209 19.616 36.5813 21.5446 37.7315 21.866C38.9478 22.2056 39.6578 22.1724 40.8254 22.3885C42.8207 22.7339 43.5993 23.6838 43.3562 25.7996C43.0642 28.4767 42.5536 32.3732 44.1106 32.8481C45.2334 33.1931 47.2834 31.1293 47.6432 30.0001C48.0028 28.871 48.0779 28.4845 48.1098 27.6563C48.1585 25.8861 48.2196 24.5886 48.5601 23.2499C48.7059 22.7319 48.8721 22.3888 49.5333 22.3654C50.0774 22.3531 51.0725 22.2079 51.5105 22.51C52.0944 22.8988 52.0214 23.2933 51.9544 24.3316C51.2754 39.1353 56.5014 31.7452 58.0596 25.8279C57.5047 19.1369 57.8856 9.23555 62.6165 9.06949C65.0769 8.98313 66.1646 10.7301 66.2843 12.034C66.6227 15.7168 64.7271 21.8172 62.2341 25.9197C60.8092 34.2907 68.4637 35.9459 69.6878 29.2642C67.6851 28.4202 65.5207 25.0044 67.282 23.3397C68.2702 22.4055 72.384 23.7476 72.4514 26.6748C74.4693 26.1965 74.7387 25.1867 74.7666 25.354C74.2119 18.663 74.7264 9.23564 79.4576 9.06957C81.9177 8.98321 83.0052 10.7301 83.1249 12.0341C83.4633 15.7168 81.5677 21.8173 79.075 25.9199C77.65 34.2907 85.3046 35.946 86.5284 29.2643C85.0457 29.0107 81.9157 25.3775 83.7216 23.3398C84.6867 22.2509 88.7854 24.5154 89.2443 26.7717C91.1828 26.2855 91.4461 25.3078 91.4739 25.4724C90.919 18.7816 91.4335 9.35422 96.1647 9.18815C98.6248 9.10179 99.7123 10.8487 99.832 12.1527C100.17 15.8354 98.2748 21.936 95.7818 26.0385C94.3571 34.4095 102.012 36.0644 103.236 29.3827C101.198 29.082 98.3022 25.2458 100.633 23.2833C101.564 22.4992 105.122 24.5346 105.955 26.8568C107.112 26.8173 107.833 26.4636 107.987 26.4279C106.14 18.573 107.515 9.14836 112.604 9.06969C115.355 9.02721 118.044 10.3877 116.864 17.8606C115.737 24.9906 111.687 27.9827 111.696 28.0285C111.932 28.8827 114.01 36.0312 119.244 32.2594C118.973 31.7157 118.702 31.1603 118.55 30.4874C117.683 26.5677 119.387 22.1404 124.018 21.4249C126.671 21.0149 129.171 22.1598 129.566 24.741C130.216 28.9645 125.913 32.0233 124.277 32.6868C123.544 32.3178 130.92 36.5107 135.298 28.108C135.552 27.6282 135.858 27.6689 136.254 27.9162C136.534 28.0908 138.129 29.4299 137.387 30.5633ZM22.2987 28.2517C22.076 27.6615 21.6189 26.361 21.4572 25.7976C20.567 25.1114 19.9315 25 18.7889 25C16.2494 25 14.7548 27.0809 14.7548 29.3247C14.7548 31.5684 16.3831 33.6496 18.9225 33.6496C21.1232 33.6496 22.7982 32.3235 23.3092 30.4462C22.9515 29.7143 22.5967 29.0417 22.2987 28.2517ZM25.7147 12.2015C23.9304 12.2015 23.3251 15.974 23.4426 19.1924C23.5465 22.0378 24.4436 24.5428 24.909 25.6653C25.0271 25.8059 25.0052 25.7144 25.1106 25.8636C28.2088 19.8472 26.9238 12.2015 25.7147 12.2015ZM62.8713 12.32C60.5651 12.0855 60.58 20.6001 60.8663 22.51C62.0641 20.8118 64.1447 12.7772 62.8713 12.32ZM79.712 12.32C77.4058 12.0855 77.4207 20.6001 77.7071 22.51C78.9047 20.8118 80.9855 12.7772 79.712 12.32ZM96.4192 12.4384C94.1129 12.204 94.1277 20.7186 94.4142 22.6287C95.6118 20.9303 97.6926 12.8956 96.4192 12.4384ZM112.859 11.8215C109.266 12.461 110.102 23.0789 110.648 24.9412C114.881 19.789 114.968 11.628 112.859 11.8215ZM126.325 25.0903C126.142 24.4133 125.229 24.0515 124.598 24.1407C122.794 24.359 121.045 26.3505 121.722 29.3824C121.873 30.0576 122.25 30.6792 122.244 30.6585C126.281 28.2577 126.625 26.3659 126.325 25.0903ZM50.2406 20.0218C49.725 20.0219 49.2209 19.8864 48.7921 19.6326C48.3634 19.3787 48.0291 19.0179 47.8317 18.5957C47.6342 18.1735 47.5826 17.7089 47.6832 17.2607C47.7837 16.8124 48.0321 16.4007 48.3966 16.0775C48.7612 15.7543 49.2257 15.5342 49.7314 15.4451C50.2371 15.3559 50.7614 15.4016 51.2378 15.5765C51.7142 15.7514 52.1213 16.0476 52.4078 16.4276C52.6942 16.8076 52.8472 17.2544 52.8472 17.7114C52.8472 18.0148 52.7798 18.3152 52.6487 18.5955C52.5178 18.8758 52.3259 19.1305 52.0838 19.345C51.8417 19.5596 51.5544 19.7298 51.2382 19.8459C50.9219 19.962 50.583 20.0218 50.2406 20.0218Z" fill="#0D0C22"/>
</g>
<defs>
<clipPath id="clip0_2921_150">
<rect width="126.369" height="48" fill="white" transform="translate(11.8145)"/>
</clipPath>
</defs>
</svg>
