<svg width="150" height="48" viewBox="0 0 150 48" fill="none" xmlns="http://www.w3.org/2000/svg">
<g style="mix-blend-mode:luminosity" clip-path="url(#clip0_2921_151)">
<path d="M24.5752 13.1064V22.1942H15.1583V13.1064H10.6875V34.7997H15.1583V26.0071H24.5752V34.7997H29.046V13.1064H24.5752Z" fill="#33475B"/>
<path d="M43.3542 27.7869C43.3542 28.6563 42.9646 29.4901 42.2709 30.1049C41.5773 30.7196 40.6365 31.065 39.6556 31.065C38.6747 31.065 37.7339 30.7196 37.0403 30.1049C36.3466 29.4901 35.957 28.6563 35.957 27.7869V18.4953H31.7162V27.7869C31.7162 29.6513 32.5518 31.4394 34.0393 32.7578C35.5268 34.0761 37.5443 34.8168 39.6479 34.8168C41.7516 34.8168 43.769 34.0761 45.2565 32.7578C46.744 31.4394 47.5797 29.6513 47.5797 27.7869V18.4953H43.3542V27.7869Z" fill="#33475B"/>
<path d="M74.7756 19.4529C74.7756 17.5484 76.1972 16.9446 77.7547 16.9446C79.0098 16.9446 80.668 17.7911 81.7523 18.8181L84.5299 15.9176C83.1433 14.2558 80.3307 13.1065 78.0285 13.1065C73.4285 13.1065 70.1011 15.4944 70.1011 19.4529C70.1011 26.7973 80.2299 24.4676 80.2299 28.5775C80.2299 29.8453 78.8412 30.9655 77.2509 30.9655C74.7428 30.9655 73.9301 29.8783 72.7779 28.729L69.6959 31.5693C71.6673 33.7145 74.0988 34.8036 77.0121 34.8036C81.3821 34.8036 84.8979 32.3866 84.8979 28.6086C84.8979 20.4547 74.769 22.9882 74.769 19.4529" fill="#33475B"/>
<path d="M137.437 31.3341C134.931 31.3341 134.219 30.3731 134.219 28.9015V22.3881H138.114V19.0877H134.219V14.7331L129.919 16.4435V29.7111C129.919 33.1047 132.561 34.815 136.184 34.815C136.752 34.8242 137.32 34.7839 137.879 34.6947L138.929 31.272C138.455 31.3011 137.912 31.3302 137.437 31.3302" fill="#33475B"/>
<path d="M59.497 18.6049C57.3963 18.6049 55.9309 19.1446 54.5136 20.3774V13.2369H50.2663V26.4715C50.2663 31.4259 54.3077 34.8195 58.8486 34.8195C63.8867 34.8195 68.3181 31.3658 68.3181 26.7141C68.3181 22.1208 64.2394 18.6068 59.497 18.6068V18.6049ZM59.4707 31.0318C58.5176 31.0318 57.5859 30.7813 56.7934 30.312C56.0009 29.8427 55.3832 29.1757 55.0185 28.3952C54.6537 27.6148 54.5583 26.756 54.7442 25.9275C54.9302 25.099 55.3891 24.3379 56.0631 23.7406C56.7371 23.1433 57.5957 22.7365 58.5306 22.5717C59.4654 22.4069 60.4343 22.4915 61.3149 22.8148C62.1955 23.138 62.9481 23.6855 63.4776 24.3878C64.0071 25.0902 64.2898 25.916 64.2898 26.7607C64.2898 27.8935 63.7821 28.9799 62.8783 29.7809C61.9746 30.5818 60.7488 31.0318 59.4707 31.0318Z" fill="#33475B"/>
<path d="M105.615 26.5153C105.615 21.8559 101.193 18.4099 96.1459 18.4099C91.605 18.4099 87.5635 21.8035 87.5635 26.758V40.0003H91.8109V32.8501C93.2259 34.0809 94.6936 34.6226 96.792 34.6226C101.534 34.6226 105.613 31.1106 105.613 26.5153H105.615ZM101.594 26.4687C101.594 27.3134 101.311 28.1392 100.781 28.8416C100.252 29.544 99.4993 30.0914 98.6187 30.4147C97.7381 30.7379 96.7692 30.8225 95.8344 30.6577C94.8996 30.4929 94.0409 30.0861 93.3669 29.4888C92.693 28.8915 92.234 28.1304 92.048 27.3019C91.8621 26.4734 91.9575 25.6146 92.3223 24.8342C92.687 24.0538 93.3047 23.3867 94.0972 22.9174C94.8897 22.4481 95.8214 22.1976 96.7745 22.1976C98.0526 22.1976 99.2784 22.6476 100.182 23.4486C101.086 24.2495 101.594 25.3359 101.594 26.4687Z" fill="#33475B"/>
<path d="M119.294 18.3496V14.6066C119.852 14.3756 120.325 14.0088 120.657 13.5489C120.989 13.089 121.167 12.555 121.169 12.009V11.9216C121.167 11.1587 120.824 10.4276 120.215 9.88807C119.607 9.34858 118.782 9.04459 117.921 9.04254H117.822C116.961 9.04459 116.136 9.34858 115.528 9.88807C114.919 10.4276 114.576 11.1587 114.574 11.9216V12.009C114.576 12.555 114.754 13.089 115.086 13.5489C115.418 14.0088 115.891 14.3756 116.449 14.6066V18.3496C114.844 18.5671 113.333 19.1565 112.068 20.0581L100.471 12.0614C100.554 11.7976 100.598 11.5256 100.603 11.2519C100.604 10.6095 100.39 9.98128 99.9876 9.44673C99.5857 8.91217 99.0139 8.49527 98.3446 8.24873C97.6753 8.00219 96.9385 7.93708 96.2275 8.06166C95.5164 8.18623 94.863 8.49487 94.3499 8.94857C93.8368 9.40226 93.487 9.98063 93.3447 10.6105C93.2025 11.2404 93.2741 11.8936 93.5507 12.4873C93.8273 13.0811 94.2963 13.5889 94.8985 13.9464C95.5007 14.3039 96.2089 14.4952 96.9337 14.496C97.5704 14.4939 98.1952 14.3432 98.7453 14.0591L110.147 21.9257C109.12 23.2989 108.584 24.9146 108.609 26.5619C108.635 28.2091 109.22 29.8113 110.289 31.1591L106.819 34.2343C106.541 34.1557 106.251 34.1138 105.959 34.11C105.363 34.11 104.781 34.2666 104.285 34.5599C103.79 34.8532 103.404 35.2701 103.176 35.7579C102.948 36.2457 102.888 36.7824 103.005 37.3002C103.121 37.818 103.408 38.2937 103.829 38.667C104.25 39.0403 104.787 39.2946 105.371 39.3976C105.955 39.5006 106.561 39.4477 107.111 39.2457C107.662 39.0436 108.132 38.7015 108.463 38.2625C108.794 37.8235 108.97 37.3074 108.97 36.7794C108.966 36.5204 108.919 36.2633 108.83 36.0165L112.263 32.9743C113.383 33.7328 114.684 34.2544 116.067 34.4993C117.45 34.7441 118.877 34.7058 120.24 34.3871C121.604 34.0685 122.867 33.478 123.934 32.6607C125 31.8434 125.842 30.8209 126.395 29.6713C126.947 28.5217 127.196 27.2754 127.123 26.0275C127.049 24.7796 126.655 23.5631 125.97 22.4709C125.285 21.3786 124.327 20.4395 123.17 19.7253C122.013 19.0111 120.688 18.5405 119.294 18.3496V18.3496ZM117.873 30.6621C116.933 30.6621 116.015 30.4152 115.234 29.9527C114.453 29.4902 113.845 28.8329 113.485 28.0638C113.126 27.2947 113.032 26.4484 113.215 25.632C113.398 24.8155 113.85 24.0655 114.515 23.4769C115.179 22.8883 116.025 22.4874 116.946 22.325C117.867 22.1626 118.822 22.2459 119.69 22.5645C120.558 22.8831 121.299 23.4225 121.821 24.1147C122.343 24.8069 122.622 25.6206 122.622 26.4531C122.622 27.5694 122.121 28.6399 121.231 29.4293C120.34 30.2186 119.132 30.6621 117.873 30.6621" fill="#FF7A59"/>
</g>
<defs>
<clipPath id="clip0_2921_151">
<rect width="128.626" height="48" fill="white" transform="translate(10.6875)"/>
</clipPath>
</defs>
</svg>
